<svg width="445" height="77" viewBox="0 0 445 77" fill="none" xmlns="http://www.w3.org/2000/svg">
<path d="M38.517 35.29H79.9316C79.9316 47.7144 76.3078 57.7574 69.0603 65.4191C61.8127 73.0118 52.2528 76.8082 40.3806 76.8082C28.7155 76.8082 19.1556 73.2534 11.701 66.1439C4.24635 58.9654 0.519037 49.7506 0.519037 38.4996C0.519037 27.2487 4.24635 18.0684 11.701 10.9589C19.1556 3.78036 28.7155 0.191095 40.3806 0.191095C50.4582 0.191095 59.1552 2.98658 66.4718 8.57755C73.7884 14.1685 78.1024 21.3471 79.4139 30.1132H53.8404C53.2192 28.5946 52.2183 27.2487 50.8378 26.0752C49.4573 24.9018 47.8352 24.0045 45.9716 23.3833C44.177 22.693 42.3133 22.3479 40.3806 22.3479C35.894 22.3479 32.2703 23.8319 29.5093 26.8C26.7483 29.768 25.3678 33.6679 25.3678 38.4996C25.3678 43.3313 26.7483 47.2312 29.5093 50.1993C32.2703 53.1673 35.894 54.6513 40.3806 54.6513C43.4867 54.6513 46.2132 54.0301 48.56 52.7877C50.9068 51.5452 52.5289 49.8886 53.4262 47.8179H38.517V35.29ZM111.567 55.2726H137.865V74.7374H87.7534V2.26182H137.347V21.7267H111.567V29.5955H134.656V47.4038H111.567V55.2726ZM195.967 2.26182H211.29V74.7374H198.245L165.424 29.4919V74.7374H149.997V2.26182H164.181L195.967 46.4719V2.26182ZM275.996 74.7374L270.923 60.9671H242.036L237.066 74.7374H220.5L248.869 2.26182H263.675L292.976 74.7374H275.996ZM256.427 21.4161L247.006 47.3002H265.953L256.427 21.4161ZM302.167 74.7374V2.26182H317.905V74.7374H302.167ZM378.217 74.7374L361.651 46.3684H345.085V74.7374H336.078V2.26182H363.515C370.348 2.26182 375.974 4.36707 380.391 8.57755C384.878 12.719 387.121 17.9994 387.121 24.4187C387.121 29.4574 385.672 33.875 382.773 37.6713C379.874 41.3987 376.008 43.9526 371.177 45.333L388.467 74.7374H378.217ZM345.085 10.8554V37.7749H363.101C367.449 37.7749 371.004 36.5324 373.765 34.0476C376.526 31.4937 377.907 28.2495 377.907 24.3151C377.907 20.3807 376.526 17.1711 373.765 14.6862C371.004 12.1323 367.449 10.8554 363.101 10.8554H345.085ZM411.717 66.0404H444.849V74.7374H402.709V2.26182H443.71V10.8554H411.717V33.3228H441.018V41.7093H411.717V66.0404Z" fill="white"/>
</svg>
